<mxfile host="app.diagrams.net" modified="2022-10-23T20:31:53.767Z" agent="5.0 (Macintosh; Intel Mac OS X 10_15_7) AppleWebKit/605.1.15 (KHTML, like Gecko) Version/15.6.1 Safari/605.1.15" etag="Rek1giTpZU2chzIH8cyL" version="20.5.1" type="github">
  <diagram id="4o9XeWuTq2nNvkwLdAB3" name="第 1 页">
    <mxGraphModel dx="1113" dy="1928" grid="1" gridSize="10" guides="1" tooltips="1" connect="1" arrows="1" fold="1" page="1" pageScale="1" pageWidth="827" pageHeight="1169" math="0" shadow="0">
      <root>
        <mxCell id="0" />
        <mxCell id="1" parent="0" />
        <mxCell id="PWqCwKVReQHC_fldtNke-1" value="Stand" style="rounded=0;whiteSpace=wrap;html=1;" vertex="1" parent="1">
          <mxGeometry x="75" y="-550" width="90" height="50" as="geometry" />
        </mxCell>
        <mxCell id="PWqCwKVReQHC_fldtNke-2" value="&lt;u&gt;ID&lt;/u&gt;" style="ellipse;whiteSpace=wrap;html=1;" vertex="1" parent="1">
          <mxGeometry x="35" y="-610" width="40" height="30" as="geometry" />
        </mxCell>
        <mxCell id="PWqCwKVReQHC_fldtNke-3" value="maxLength" style="ellipse;whiteSpace=wrap;html=1;" vertex="1" parent="1">
          <mxGeometry x="140" y="-630" width="90" height="60" as="geometry" />
        </mxCell>
        <mxCell id="PWqCwKVReQHC_fldtNke-4" value="" style="endArrow=none;html=1;rounded=0;exitX=0.317;exitY=0;exitDx=0;exitDy=0;exitPerimeter=0;" edge="1" parent="1" source="PWqCwKVReQHC_fldtNke-1" target="PWqCwKVReQHC_fldtNke-2">
          <mxGeometry width="50" height="50" relative="1" as="geometry">
            <mxPoint x="390" y="-280" as="sourcePoint" />
            <mxPoint x="440" y="-330" as="targetPoint" />
          </mxGeometry>
        </mxCell>
        <mxCell id="PWqCwKVReQHC_fldtNke-5" value="" style="endArrow=none;html=1;rounded=0;exitX=0.5;exitY=0;exitDx=0;exitDy=0;" edge="1" parent="1" source="PWqCwKVReQHC_fldtNke-1" target="PWqCwKVReQHC_fldtNke-3">
          <mxGeometry width="50" height="50" relative="1" as="geometry">
            <mxPoint x="390" y="-280" as="sourcePoint" />
            <mxPoint x="440" y="-330" as="targetPoint" />
          </mxGeometry>
        </mxCell>
        <mxCell id="PWqCwKVReQHC_fldtNke-6" value="BusOperator" style="rounded=0;whiteSpace=wrap;html=1;" vertex="1" parent="1">
          <mxGeometry x="460" y="-280" width="120" height="60" as="geometry" />
        </mxCell>
        <mxCell id="PWqCwKVReQHC_fldtNke-7" value="&lt;u&gt;name&lt;/u&gt;" style="ellipse;whiteSpace=wrap;html=1;" vertex="1" parent="1">
          <mxGeometry x="389" y="-380" width="91" height="75" as="geometry" />
        </mxCell>
        <mxCell id="PWqCwKVReQHC_fldtNke-8" value="address" style="ellipse;whiteSpace=wrap;html=1;" vertex="1" parent="1">
          <mxGeometry x="400" y="-190" width="80" height="60" as="geometry" />
        </mxCell>
        <mxCell id="PWqCwKVReQHC_fldtNke-9" value="email" style="ellipse;whiteSpace=wrap;html=1;" vertex="1" parent="1">
          <mxGeometry x="520" y="-380" width="100" height="60" as="geometry" />
        </mxCell>
        <mxCell id="PWqCwKVReQHC_fldtNke-10" value="phone" style="ellipse;whiteSpace=wrap;html=1;" vertex="1" parent="1">
          <mxGeometry x="530" y="-190" width="80" height="60" as="geometry" />
        </mxCell>
        <mxCell id="PWqCwKVReQHC_fldtNke-11" value="" style="endArrow=none;html=1;rounded=0;" edge="1" parent="1" source="PWqCwKVReQHC_fldtNke-6" target="PWqCwKVReQHC_fldtNke-7">
          <mxGeometry width="50" height="50" relative="1" as="geometry">
            <mxPoint x="400" y="-440" as="sourcePoint" />
            <mxPoint x="450" y="-490" as="targetPoint" />
          </mxGeometry>
        </mxCell>
        <mxCell id="PWqCwKVReQHC_fldtNke-12" value="" style="endArrow=none;html=1;rounded=0;" edge="1" parent="1" source="PWqCwKVReQHC_fldtNke-6" target="PWqCwKVReQHC_fldtNke-8">
          <mxGeometry width="50" height="50" relative="1" as="geometry">
            <mxPoint x="390" y="-280" as="sourcePoint" />
            <mxPoint x="440" y="-330" as="targetPoint" />
          </mxGeometry>
        </mxCell>
        <mxCell id="PWqCwKVReQHC_fldtNke-13" value="" style="endArrow=none;html=1;rounded=0;" edge="1" parent="1" source="PWqCwKVReQHC_fldtNke-6" target="PWqCwKVReQHC_fldtNke-9">
          <mxGeometry width="50" height="50" relative="1" as="geometry">
            <mxPoint x="470" y="-290" as="sourcePoint" />
            <mxPoint x="520" y="-340" as="targetPoint" />
          </mxGeometry>
        </mxCell>
        <mxCell id="PWqCwKVReQHC_fldtNke-14" value="" style="endArrow=none;html=1;rounded=0;" edge="1" parent="1" source="PWqCwKVReQHC_fldtNke-6" target="PWqCwKVReQHC_fldtNke-10">
          <mxGeometry width="50" height="50" relative="1" as="geometry">
            <mxPoint x="390" y="-280" as="sourcePoint" />
            <mxPoint x="440" y="-330" as="targetPoint" />
          </mxGeometry>
        </mxCell>
        <mxCell id="PWqCwKVReQHC_fldtNke-15" value="BusRoute" style="rounded=0;whiteSpace=wrap;html=1;" vertex="1" parent="1">
          <mxGeometry x="70" y="-275" width="110" height="50" as="geometry" />
        </mxCell>
        <mxCell id="PWqCwKVReQHC_fldtNke-16" value="number" style="ellipse;whiteSpace=wrap;html=1;" vertex="1" parent="1">
          <mxGeometry y="-195" width="90" height="50" as="geometry" />
        </mxCell>
        <mxCell id="PWqCwKVReQHC_fldtNke-17" value="frequency" style="ellipse;whiteSpace=wrap;html=1;" vertex="1" parent="1">
          <mxGeometry x="130" y="-195" width="80" height="60" as="geometry" />
        </mxCell>
        <mxCell id="PWqCwKVReQHC_fldtNke-18" value="" style="endArrow=none;html=1;rounded=0;" edge="1" parent="1" source="PWqCwKVReQHC_fldtNke-16" target="PWqCwKVReQHC_fldtNke-15">
          <mxGeometry width="50" height="50" relative="1" as="geometry">
            <mxPoint x="390" y="-280" as="sourcePoint" />
            <mxPoint x="440" y="-330" as="targetPoint" />
          </mxGeometry>
        </mxCell>
        <mxCell id="PWqCwKVReQHC_fldtNke-19" value="" style="endArrow=none;html=1;rounded=0;" edge="1" parent="1" source="PWqCwKVReQHC_fldtNke-17" target="PWqCwKVReQHC_fldtNke-15">
          <mxGeometry width="50" height="50" relative="1" as="geometry">
            <mxPoint x="390" y="-280" as="sourcePoint" />
            <mxPoint x="440" y="-330" as="targetPoint" />
          </mxGeometry>
        </mxCell>
        <mxCell id="PWqCwKVReQHC_fldtNke-20" value="Bus" style="rounded=0;whiteSpace=wrap;html=1;" vertex="1" parent="1">
          <mxGeometry x="800" y="-275" width="80" height="50" as="geometry" />
        </mxCell>
        <mxCell id="PWqCwKVReQHC_fldtNke-21" value="&lt;u&gt;type&lt;/u&gt;" style="ellipse;whiteSpace=wrap;html=1;" vertex="1" parent="1">
          <mxGeometry x="840" y="-360" width="70" height="55" as="geometry" />
        </mxCell>
        <mxCell id="PWqCwKVReQHC_fldtNke-22" value="length" style="ellipse;whiteSpace=wrap;html=1;" vertex="1" parent="1">
          <mxGeometry x="750" y="-210" width="80" height="60" as="geometry" />
        </mxCell>
        <mxCell id="PWqCwKVReQHC_fldtNke-23" value="description" style="ellipse;whiteSpace=wrap;html=1;" vertex="1" parent="1">
          <mxGeometry x="737" y="-362.5" width="90" height="60" as="geometry" />
        </mxCell>
        <mxCell id="PWqCwKVReQHC_fldtNke-24" value="" style="endArrow=none;html=1;rounded=0;" edge="1" parent="1" source="PWqCwKVReQHC_fldtNke-22" target="PWqCwKVReQHC_fldtNke-20">
          <mxGeometry width="50" height="50" relative="1" as="geometry">
            <mxPoint x="640" y="-100" as="sourcePoint" />
            <mxPoint x="690" y="-150" as="targetPoint" />
          </mxGeometry>
        </mxCell>
        <mxCell id="PWqCwKVReQHC_fldtNke-25" value="" style="endArrow=none;html=1;rounded=0;" edge="1" parent="1" source="PWqCwKVReQHC_fldtNke-23" target="PWqCwKVReQHC_fldtNke-20">
          <mxGeometry width="50" height="50" relative="1" as="geometry">
            <mxPoint x="390" y="-270" as="sourcePoint" />
            <mxPoint x="440" y="-320" as="targetPoint" />
          </mxGeometry>
        </mxCell>
        <mxCell id="PWqCwKVReQHC_fldtNke-26" value="" style="endArrow=none;html=1;rounded=0;" edge="1" parent="1" source="PWqCwKVReQHC_fldtNke-21" target="PWqCwKVReQHC_fldtNke-20">
          <mxGeometry width="50" height="50" relative="1" as="geometry">
            <mxPoint x="390" y="-270" as="sourcePoint" />
            <mxPoint x="440" y="-320" as="targetPoint" />
          </mxGeometry>
        </mxCell>
        <mxCell id="PWqCwKVReQHC_fldtNke-27" value="OperatesRoute" style="rhombus;whiteSpace=wrap;html=1;" vertex="1" parent="1">
          <mxGeometry x="260" y="-305" width="110" height="110" as="geometry" />
        </mxCell>
        <mxCell id="PWqCwKVReQHC_fldtNke-28" value="" style="endArrow=none;html=1;rounded=0;entryX=0;entryY=0.5;entryDx=0;entryDy=0;" edge="1" parent="1" source="PWqCwKVReQHC_fldtNke-15" target="PWqCwKVReQHC_fldtNke-27">
          <mxGeometry width="50" height="50" relative="1" as="geometry">
            <mxPoint x="200" y="-290" as="sourcePoint" />
            <mxPoint x="250" y="-340" as="targetPoint" />
          </mxGeometry>
        </mxCell>
        <mxCell id="PWqCwKVReQHC_fldtNke-29" value="" style="endArrow=none;html=1;rounded=0;exitX=1;exitY=0.5;exitDx=0;exitDy=0;" edge="1" parent="1" source="PWqCwKVReQHC_fldtNke-27" target="PWqCwKVReQHC_fldtNke-6">
          <mxGeometry width="50" height="50" relative="1" as="geometry">
            <mxPoint x="470" y="-310" as="sourcePoint" />
            <mxPoint x="520" y="-360" as="targetPoint" />
          </mxGeometry>
        </mxCell>
        <mxCell id="PWqCwKVReQHC_fldtNke-30" value="many" style="text;html=1;align=center;verticalAlign=middle;resizable=0;points=[];autosize=1;strokeColor=none;fillColor=none;" vertex="1" parent="1">
          <mxGeometry x="190" y="-275" width="50" height="30" as="geometry" />
        </mxCell>
        <mxCell id="PWqCwKVReQHC_fldtNke-31" value="many" style="text;html=1;align=center;verticalAlign=middle;resizable=0;points=[];autosize=1;strokeColor=none;fillColor=none;" vertex="1" parent="1">
          <mxGeometry x="389" y="-275" width="50" height="30" as="geometry" />
        </mxCell>
        <mxCell id="PWqCwKVReQHC_fldtNke-32" value="proportion" style="ellipse;whiteSpace=wrap;html=1;" vertex="1" parent="1">
          <mxGeometry x="260" y="-170" width="85" height="50" as="geometry" />
        </mxCell>
        <mxCell id="PWqCwKVReQHC_fldtNke-33" value="" style="endArrow=none;html=1;rounded=0;entryX=0.5;entryY=1;entryDx=0;entryDy=0;" edge="1" parent="1" source="PWqCwKVReQHC_fldtNke-32" target="PWqCwKVReQHC_fldtNke-27">
          <mxGeometry width="50" height="50" relative="1" as="geometry">
            <mxPoint x="380" y="-190" as="sourcePoint" />
            <mxPoint x="430" y="-240" as="targetPoint" />
          </mxGeometry>
        </mxCell>
        <mxCell id="PWqCwKVReQHC_fldtNke-34" value="uses" style="rhombus;whiteSpace=wrap;html=1;" vertex="1" parent="1">
          <mxGeometry x="80" y="-440" width="80" height="80" as="geometry" />
        </mxCell>
        <mxCell id="PWqCwKVReQHC_fldtNke-35" value="Uses" style="rhombus;whiteSpace=wrap;html=1;" vertex="1" parent="1">
          <mxGeometry x="650" y="-290" width="80" height="80" as="geometry" />
        </mxCell>
        <mxCell id="PWqCwKVReQHC_fldtNke-36" value="" style="endArrow=none;html=1;rounded=0;entryX=0;entryY=0.5;entryDx=0;entryDy=0;" edge="1" parent="1" source="PWqCwKVReQHC_fldtNke-6" target="PWqCwKVReQHC_fldtNke-35">
          <mxGeometry width="50" height="50" relative="1" as="geometry">
            <mxPoint x="500" y="-290" as="sourcePoint" />
            <mxPoint x="550" y="-340" as="targetPoint" />
          </mxGeometry>
        </mxCell>
        <mxCell id="PWqCwKVReQHC_fldtNke-37" value="" style="endArrow=none;html=1;rounded=0;exitX=1;exitY=0.5;exitDx=0;exitDy=0;" edge="1" parent="1" source="PWqCwKVReQHC_fldtNke-35" target="PWqCwKVReQHC_fldtNke-20">
          <mxGeometry width="50" height="50" relative="1" as="geometry">
            <mxPoint x="500" y="-290" as="sourcePoint" />
            <mxPoint x="550" y="-340" as="targetPoint" />
          </mxGeometry>
        </mxCell>
        <mxCell id="PWqCwKVReQHC_fldtNke-38" value="many" style="text;html=1;align=center;verticalAlign=middle;resizable=0;points=[];autosize=1;strokeColor=none;fillColor=none;" vertex="1" parent="1">
          <mxGeometry x="600" y="-280" width="50" height="30" as="geometry" />
        </mxCell>
        <mxCell id="PWqCwKVReQHC_fldtNke-39" value="many" style="text;html=1;align=center;verticalAlign=middle;resizable=0;points=[];autosize=1;strokeColor=none;fillColor=none;" vertex="1" parent="1">
          <mxGeometry x="740" y="-280" width="50" height="30" as="geometry" />
        </mxCell>
        <mxCell id="PWqCwKVReQHC_fldtNke-40" value="" style="endArrow=none;html=1;rounded=0;exitX=0.5;exitY=0;exitDx=0;exitDy=0;" edge="1" parent="1" source="PWqCwKVReQHC_fldtNke-34" target="PWqCwKVReQHC_fldtNke-1">
          <mxGeometry width="50" height="50" relative="1" as="geometry">
            <mxPoint x="120" y="-440" as="sourcePoint" />
            <mxPoint x="170" y="-490" as="targetPoint" />
          </mxGeometry>
        </mxCell>
        <mxCell id="PWqCwKVReQHC_fldtNke-41" value="" style="endArrow=none;html=1;rounded=0;entryX=0.5;entryY=1;entryDx=0;entryDy=0;" edge="1" parent="1" source="PWqCwKVReQHC_fldtNke-15" target="PWqCwKVReQHC_fldtNke-34">
          <mxGeometry width="50" height="50" relative="1" as="geometry">
            <mxPoint x="480" y="-300" as="sourcePoint" />
            <mxPoint x="530" y="-350" as="targetPoint" />
          </mxGeometry>
        </mxCell>
        <mxCell id="PWqCwKVReQHC_fldtNke-42" value="1" style="text;html=1;align=center;verticalAlign=middle;resizable=0;points=[];autosize=1;strokeColor=none;fillColor=none;" vertex="1" parent="1">
          <mxGeometry x="90" y="-480" width="30" height="30" as="geometry" />
        </mxCell>
        <mxCell id="PWqCwKVReQHC_fldtNke-43" value="many" style="text;html=1;align=center;verticalAlign=middle;resizable=0;points=[];autosize=1;strokeColor=none;fillColor=none;" vertex="1" parent="1">
          <mxGeometry x="75" y="-332.5" width="50" height="30" as="geometry" />
        </mxCell>
      </root>
    </mxGraphModel>
  </diagram>
</mxfile>
